<svg xmlns="http://www.w3.org/2000/svg" viewBox="0 0 120 120" fill="none">
  <defs>
    <linearGradient id="bm-gradient" x1="12" y1="28" x2="108" y2="96" gradientUnits="userSpaceOnUse">
      <stop offset="0%" stop-color="#2563EB" />
      <stop offset="100%" stop-color="#38BDF8" />
    </linearGradient>
  </defs>
  <path
    d="M28 72c-8 0-14-6-14-14 0-7 4-12 11-14 2-11 12-18 24-16 6-8 18-10 27-3 8 1 14 8 14 17 6 3 10 9 10 16 0 10-8 18-18 18H40c-6 0-12-4-12-10z"
    fill="url(#bm-gradient)"
  />
  <path d="M48 68h8v18h-8z" fill="#0F172A" />
  <path d="M62 62h8v24h-8z" fill="#0F172A" />
  <path d="M76 56h8v30h-8z" fill="#0F172A" />
  <path
    d="M34 52c10-10 22-16 36-16 16 0 28 7 38 18"
    stroke="#0F172A"
    stroke-width="4"
    stroke-linecap="round"
  />
  <path d="M90 34a6 6 0 1 1-12 0a6 6 0 1 1 12 0z" fill="#0F172A" />
</svg>
